<?xml version="1.0" encoding="UTF-8" standalone="no"?>
<svg
   xmlns:dc="http://purl.org/dc/elements/1.1/"
   xmlns:cc="http://creativecommons.org/ns#"
   xmlns:rdf="http://www.w3.org/1999/02/22-rdf-syntax-ns#"
   xmlns:svg="http://www.w3.org/2000/svg"
   xmlns="http://www.w3.org/2000/svg"
   xmlns:sodipodi="http://sodipodi.sourceforge.net/DTD/sodipodi-0.dtd"
   xmlns:inkscape="http://www.inkscape.org/namespaces/inkscape"
   version="1.1"
   x="0px"
   y="0px"
   viewBox="0 0 100 125"
   enable-background="new 0 0 100 100"
   xml:space="preserve"
   id="svg2"
   inkscape:version="0.91 r13725"
   sodipodi:docname="favicon.svg"><metadata
     id="metadata34"><rdf:RDF><cc:Work
         rdf:about=""><dc:format>image/svg+xml</dc:format><dc:type
           rdf:resource="http://purl.org/dc/dcmitype/StillImage" /><dc:title /></cc:Work></rdf:RDF></metadata><defs
     id="defs32" /><sodipodi:namedview
     pagecolor="#ffffff"
     bordercolor="#666666"
     borderopacity="1"
     objecttolerance="10"
     gridtolerance="10"
     guidetolerance="10"
     inkscape:pageopacity="0"
     inkscape:pageshadow="2"
     inkscape:window-width="719"
     inkscape:window-height="371"
     id="namedview30"
     showgrid="false"
     inkscape:zoom="5.3400704"
     inkscape:cx="20.375884"
     inkscape:cy="76.075134"
     inkscape:window-x="710"
     inkscape:window-y="297"
     inkscape:window-maximized="0"
     inkscape:current-layer="svg2" /><g
     id="g4218"
     transform="translate(0,0.43245316)"
     inkscape:export-xdpi="417.06"
     inkscape:export-ydpi="417.06"><rect
       ry="12.546648"
       rx="12.546648"
       y="16.749794"
       x="4.6822472"
       height="90.635506"
       width="90.635506"
       id="rect4177"
       style="fill:#000000;fill-opacity:1;stroke:none;stroke-width:0.5;stroke-linecap:round;stroke-linejoin:round;stroke-miterlimit:4;stroke-dasharray:none;stroke-opacity:1" /><path
       id="path4"
       d="m 49.956755,23.536062 c -21.449626,0 -38.920693,17.471066 -38.920693,38.920693 0,18.941403 13.492507,34.596171 31.309535,38.142275 0.345962,-0.778411 0.778414,-1.729805 0.951395,-2.6812 -0.172981,-0.951395 -0.259471,-1.902789 -0.518943,-2.681203 -0.864904,-2.767694 -1.902789,-5.535388 -2.940674,-8.303081 -0.518943,-1.556828 -1.90279,-1.556828 -3.373127,-1.383847 -2.248751,0.172981 -4.670483,0.518942 -6.919234,0.259471 -3.459617,-0.345962 -4.238031,-1.816299 -4.151541,-5.275916 0.08649,-0.951395 -0.172981,-2.335242 -0.778414,-3.027165 -1.210866,-1.210866 -0.778413,-2.07577 0,-3.113655 -0.17298,0 -0.432452,-0.08649 -0.605433,-0.08649 -0.08649,-0.864904 -0.518942,-1.816299 -0.345961,-2.594713 0.345961,-1.902789 0,-2.594712 -1.90279,-3.286636 -0.605433,-0.172981 -1.124375,-0.345962 -1.729808,-0.691923 -1.556828,-0.864905 -1.90279,-1.816299 -0.951395,-3.459617 1.556828,-2.767694 3.373127,-5.535388 4.929954,-8.389572 0.518943,-0.864904 0.345962,-2.248751 0.345962,-3.373127 0,-1.210866 -0.605433,-2.594712 -0.345962,-3.805578 0.691924,-2.421732 1.470338,-4.843464 2.508223,-7.092216 2.421732,-5.448897 6.919234,-8.735533 12.454621,-10.20587 6.313802,-1.729809 12.973565,-2.421732 19.287366,-0.605433 8.389571,2.421732 17.557557,9.773418 17.557557,20.15227 0,3.459617 -0.778414,7.178705 -2.248751,10.292361 -4.238031,8.995004 -5.016445,13.146545 -2.681204,22.746982 0,0 0,0.864904 1.470338,3.200146 0,0 1.556827,1.816299 3.632598,4.238031 C 83.861003,84.338833 88.963938,73.959981 88.963938,62.456755 88.790957,40.920638 71.406381,23.536062 49.956755,23.536062 Z"
       inkscape:connector-curvature="0"
       style="fill:#ffffff" /><g
       transform="matrix(0.86490428,0,0,0.86490428,7.1439929,19.298031)"
       id="g6"
       style="fill:#ffffff"><path
         id="path8"
         d="m 74.8,34.1 c 0.5,-0.3 0.8,-0.9 0.8,-1.5 0,-1 -0.8,-1.8 -1.8,-1.8 -1,0 -1.8,0.8 -1.8,1.8 0,0.6 0.3,1.2 0.8,1.5 l 0,2.9 -16.5,16.4 0,-2.1 7.6,-7.6 c 0.1,0 0.2,0 0.4,0 1,0 1.8,-0.8 1.8,-1.8 0,-1 -0.8,-1.8 -1.8,-1.8 -1,0 -1.8,0.8 -1.8,1.8 0,0.1 0,0.3 0,0.4 l -6.2,6.2 0,-1.9 12.1,-12.1 0,-6.9 c 0.5,-0.3 0.8,-0.9 0.8,-1.5 0,-1 -0.8,-1.8 -1.8,-1.8 -1,0 -1.8,0.8 -1.8,1.8 0,0.6 0.3,1.2 0.8,1.5 l 0,6 -12.1,12.2 0,48.2 c 0,0.6 0.4,1 1,1 0.6,0 1,-0.4 1,-1 l 0,-37.7 18.5,-18.5 0,-3.7 z"
         inkscape:connector-curvature="0"
         style="fill:#ffffff" /><path
         id="path10"
         d="m 27.8,36.5 -1.4,-1.4 c 0,-0.1 0,-0.2 0,-0.4 0,-1 -0.8,-1.8 -1.8,-1.8 -1,0 -1.8,0.8 -1.8,1.8 0,1 0.8,1.8 1.8,1.8 0.1,0 0.3,0 0.4,0 l 1.9,1.9 15.2,0 7.4,7.4 0,2.4 -6.8,-6.8 -8.2,0 -0.3,-0.3 c 0,-0.1 0,-0.2 0,-0.4 0,-1 -0.8,-1.8 -1.8,-1.8 -1,0 -1.8,0.8 -1.8,1.8 0,1 0.8,1.8 1.8,1.8 0.1,0 0.3,0 0.4,0 l 0.8,0.8 8.4,0 7.6,7.6 0,43.1 c 0,0.6 0.4,1 1,1 0.6,0 1,-0.4 1,-1 l 0,-48.9 -8.6,-8.6 -15.2,0 z"
         inkscape:connector-curvature="0"
         style="fill:#ffffff" /><path
         id="path12"
         d="m 59.2,32.9 c -0.1,0 -0.2,0 -0.4,0 -1,0 -1.8,0.8 -1.8,1.8 0,1 0.8,1.8 1.8,1.8 1,0 1.8,-0.8 1.8,-1.8 0,-0.1 0,-0.3 0,-0.4 l 2.2,-2.2 0,-9.7 c 0.5,-0.3 0.8,-0.9 0.8,-1.5 0,-1 -0.8,-1.8 -1.8,-1.8 -1,0 -1.8,0.8 -1.8,1.8 0,0.6 0.3,1.2 0.8,1.5 l 0,8.9 -1.6,1.6 z"
         inkscape:connector-curvature="0"
         style="fill:#ffffff" /><path
         id="path14"
         d="m 75.3,44 c -1,0 -1.8,0.8 -1.8,1.8 0,0.1 0,0.3 0,0.4 l -1,1 -4.1,0 -9.4,9.3 0,37.5 c 0,0.6 0.4,1 1,1 0.6,0 1,-0.4 1,-1 l 0,-36.6 8.2,-8.2 4.1,0 1.5,-1.5 c 0.1,0 0.2,0 0.4,0 1,0 1.8,-0.8 1.8,-1.8 C 77.2,44.8 76.4,44 75.3,44 Z"
         inkscape:connector-curvature="0"
         style="fill:#ffffff" /><path
         id="path16"
         d="m 70.1,54.6 c -0.6,0 -1.2,0.3 -1.5,0.8 l -2.6,0 -2.2,2.2 0,36.4 c 0,0.6 0.4,1 1,1 0.6,0 1,-0.4 1,-1 l 0,-35.5 1.1,-1.1 1.7,0 c 0.3,0.5 0.9,0.8 1.5,0.8 1,0 1.8,-0.8 1.8,-1.8 0,-0.9 -0.8,-1.8 -1.8,-1.8 z"
         inkscape:connector-curvature="0"
         style="fill:#ffffff" /><path
         id="path18"
         d="m 55.7,40.6 c 1,0 1.8,-0.8 1.8,-1.8 0,-1 -0.8,-1.8 -1.8,-1.8 -1,0 -1.8,0.8 -1.8,1.8 0,0.2 0,0.4 0.1,0.6 l -1.2,1.2 -8,-8 -15.8,0 -2.8,-2.8 c 0,-0.1 0,-0.2 0,-0.4 0,-1 -0.8,-1.8 -1.8,-1.8 -1,0 -1.8,0.8 -1.8,1.8 0,1 0.8,1.8 1.8,1.8 0.1,0 0.3,0 0.4,0 l 3.4,3.4 15.8,0 8.8,8.8 2.7,-2.7 c 0.1,-0.2 0.2,-0.1 0.2,-0.1 z"
         inkscape:connector-curvature="0"
         style="fill:#ffffff" /><path
         id="path20"
         d="m 39.6,17.6 c 0.6,0 1.2,-0.3 1.5,-0.8 l 1.6,0 7.7,7.7 c 0,0.1 0,0.2 0,0.4 0,1 0.8,1.8 1.8,1.8 1,0 1.8,-0.8 1.8,-1.8 0,-1 -0.8,-1.8 -1.8,-1.8 -0.1,0 -0.3,0 -0.4,0 l -8.3,-8.3 -2.5,0 C 40.7,14.3 40.1,14 39.5,14 c -1,0 -1.8,0.8 -1.8,1.8 0,1 0.8,1.8 1.9,1.8 z"
         inkscape:connector-curvature="0"
         style="fill:#ffffff" /><path
         id="path22"
         d="m 27.9,26.9 c 0.1,0 0.3,0 0.4,0 l 3.2,3.2 11.9,0 -6.5,-6.5 c 0,-0.1 0,-0.2 0,-0.4 0,-1 -0.8,-1.8 -1.8,-1.8 -1,0 -1.8,0.8 -1.8,1.8 0,1 0.8,1.8 1.8,1.8 0.1,0 0.3,0 0.4,0 l 3.1,3.1 -6.2,0 -2.7,-2.7 c 0,-0.1 0,-0.2 0,-0.4 0,-1 -0.8,-1.8 -1.8,-1.8 -1,0 -1.8,0.8 -1.8,1.8 0,1.1 0.8,1.9 1.8,1.9 z"
         inkscape:connector-curvature="0"
         style="fill:#ffffff" /><path
         id="path24"
         d="m 29.5,22.9 c 1,0 1.8,-0.8 1.8,-1.8 0,-0.1 0,-0.3 0,-0.4 l 2.3,-2.3 2.1,0 16.7,16.7 5.3,-5.3 0,-12 -3.1,-3.1 -2.4,0 c -0.3,-0.5 -0.9,-0.8 -1.5,-0.8 -1,0 -1.8,0.8 -1.8,1.8 0,1 0.8,1.8 1.8,1.8 0.6,0 1.2,-0.3 1.5,-0.8 l 1.6,0 1.9,1.9 0,10.4 -3.3,3.3 -15.9,-15.9 -3.8,0 -2.9,2.9 c -0.1,0 -0.2,0 -0.4,0 -1,0 -1.8,0.8 -1.8,1.8 0.1,1 0.9,1.8 1.9,1.8 z"
         inkscape:connector-curvature="0"
         style="fill:#ffffff" /></g></g></svg>